<svg width="750" height="190" viewBox="0 0 750 190" fill="none" xmlns="http://www.w3.org/2000/svg">
<g clip-path="url(#clip0_67_3437)">
<rect width="750" height="190" fill="white"/>
<path d="M750 0H0V190H750V0Z" fill="url(#paint0_linear_67_3437)"/>
<mask id="mask0_67_3437" style="mask-type:alpha" maskUnits="userSpaceOnUse" x="330" y="-7" width="420" height="239">
<path d="M750 -7H330V231.56H750V-7Z" fill="white"/>
</mask>
<g mask="url(#mask0_67_3437)">
<path fill-rule="evenodd" clip-rule="evenodd" d="M598.104 57.302L936.304 748.469C951.349 779.217 938.539 816.3 907.691 831.296C876.844 846.293 839.64 833.525 824.596 802.777L486.395 111.61C471.35 80.8623 484.16 43.779 515.008 28.7825C545.855 13.7859 583.059 26.5545 598.104 57.302Z" fill="#11C7E6"/>
<path opacity="0.2" fill-rule="evenodd" clip-rule="evenodd" d="M701.785 22.8024C706.425 20.5486 712.022 22.4678 714.284 27.088L765.156 130.953C767.419 135.574 765.492 141.147 760.853 143.4C756.212 145.654 750.616 143.735 748.353 139.115L697.482 35.2492C695.219 30.629 697.145 25.0562 701.785 22.8024Z" fill="#3196D6"/>
<path fill-rule="evenodd" clip-rule="evenodd" d="M422.265 64.1431C431.502 59.6473 442.643 63.4751 447.148 72.6924L548.419 279.879C552.925 289.097 549.088 300.213 539.851 304.708C530.615 309.203 519.474 305.376 514.969 296.159L413.697 88.9715C409.192 79.7548 413.028 68.6384 422.265 64.1431Z" fill="#095BB1"/>
<path fill-rule="evenodd" clip-rule="evenodd" d="M709.16 101.451L878.259 446.762C885.782 462.124 879.377 480.651 863.953 488.143C848.529 495.636 829.928 489.257 822.405 473.895L653.305 128.583C645.782 113.221 652.188 94.6949 667.611 87.2023C683.035 79.7097 701.637 86.0892 709.16 101.451Z" fill="#3196D6"/>
</g>
<path d="M49.8 83V49.4H53.976V83H49.8ZM76.3013 83.576C65.7413 83.576 62.0453 74.504 62.0453 66.2C62.0453 57.896 65.7413 48.824 76.3013 48.824C86.9093 48.824 90.6053 57.896 90.6053 66.2C90.6053 74.504 86.9093 83.576 76.3013 83.576ZM76.3013 79.64C83.6933 79.64 86.2373 72.248 86.2373 66.2C86.2373 59.624 83.6933 52.712 76.3013 52.712C68.9573 52.712 66.3653 60.104 66.3653 66.2C66.3653 72.776 68.9573 79.64 76.3013 79.64ZM123.124 83H119.092L103.972 59C103.54 58.28 103.06 57.464 102.628 56.648C102.676 57.368 102.724 58.232 102.724 59V83H98.5478V49.4H102.772L117.652 73.304C118.132 74.12 118.564 74.888 119.044 75.8C118.996 74.936 118.948 74.12 118.948 73.352V49.4H123.124V83ZM145.348 83.576C134.788 83.576 131.092 74.504 131.092 66.2C131.092 57.896 134.788 48.824 145.348 48.824C155.956 48.824 159.652 57.896 159.652 66.2C159.652 74.504 155.956 83.576 145.348 83.576ZM145.348 79.64C152.74 79.64 155.284 72.248 155.284 66.2C155.284 59.624 152.74 52.712 145.348 52.712C138.004 52.712 135.412 60.104 135.412 66.2C135.412 72.776 138.004 79.64 145.348 79.64ZM177.387 83.576C171.531 83.576 167.163 80.408 165.675 76.088L169.611 74.648C170.955 77.624 173.787 79.64 177.483 79.64C181.515 79.64 184.107 77.672 184.107 73.976C184.107 70.088 180.459 68.312 176.523 66.872C171.819 65.144 166.683 62.984 166.683 57.128C166.683 52.616 170.475 48.824 177.003 48.824C182.331 48.824 185.835 51.368 186.843 54.824L183.003 56.12C182.187 54.248 180.027 52.712 176.715 52.712C173.163 52.712 171.003 54.392 171.003 57.128C171.003 60.248 174.459 61.64 178.251 63.032C182.955 64.808 188.427 67.256 188.427 73.88C188.427 80.072 183.723 83.576 177.387 83.576ZM219.872 83.576C209.696 83.576 205.952 74.744 205.952 66.2C205.952 57.752 209.888 48.824 219.872 48.824C226.064 48.824 229.232 51.848 230.72 54.872L226.976 56.792C225.392 54.44 223.568 52.712 219.872 52.712C212.672 52.712 210.272 60.056 210.272 66.2C210.272 72.872 213.152 79.64 219.872 79.64C223.568 79.64 225.632 77.912 227.168 75.368L231.008 76.808C229.28 80.552 225.776 83.576 219.872 83.576ZM237.99 83V50.312L242.166 48.344V83H237.99ZM259.72 83.576C253.144 83.576 248.872 78.872 248.872 70.76C248.872 62.696 253.144 57.896 259.72 57.896C266.296 57.896 270.568 62.6 270.568 70.712C270.568 78.776 266.296 83.576 259.72 83.576ZM259.72 79.688C263.848 79.688 266.344 76.328 266.344 70.712C266.344 65.144 263.896 61.736 259.72 61.736C255.544 61.736 253.096 65.048 253.096 70.76C253.096 76.328 255.544 79.688 259.72 79.688ZM291.958 83V80.648C290.326 82.76 288.358 83.576 285.766 83.576C280.006 83.576 276.838 80.504 276.838 72.632V58.472H281.014V73.256C281.014 77.912 283.27 79.688 286.294 79.688C289.51 79.688 291.958 78.152 291.958 73.352V58.472H296.134V83H291.958ZM312.813 83.576C306.573 83.576 302.685 78.632 302.685 70.712C302.685 62.648 306.717 57.896 312.813 57.896C315.693 57.896 317.613 58.952 319.005 60.2V50.312L323.181 48.344V83H319.005V81.08C317.613 82.52 315.741 83.576 312.813 83.576ZM313.389 79.688C315.693 79.688 317.757 78.488 319.005 76.376V64.856C318.093 63.416 316.221 61.736 313.389 61.736C309.261 61.736 306.909 64.952 306.909 70.712C306.909 75.8 309.357 79.688 313.389 79.688ZM49.704 139V105.4H69.912V109.336H53.88V119.656H64.488V123.592H53.88V139H49.704ZM91.4501 139L88.5701 130.792H75.2261L72.3941 139H68.0261L79.9301 105.4H83.8181L95.7221 139H91.4501ZM87.2741 127.096L82.9541 114.664C82.6181 113.704 82.0901 112.12 81.8981 111.256C81.6581 112.12 81.1781 113.704 80.8421 114.664L76.4741 127.096H87.2741ZM113.614 139.576C103.054 139.576 99.3578 130.504 99.3578 122.2C99.3578 113.896 103.054 104.824 113.614 104.824C124.222 104.824 127.918 113.896 127.918 122.2C127.918 127.384 126.478 132.856 122.782 136.264L125.326 140.008L122.254 142.168L119.662 138.328C117.934 139.144 115.966 139.576 113.614 139.576ZM113.614 135.64C115.006 135.64 116.254 135.4 117.31 134.872L114.91 131.272L118.078 129.112L120.382 132.568C122.638 129.88 123.55 125.8 123.55 122.2C123.55 115.624 121.006 108.712 113.614 108.712C106.27 108.712 103.678 116.104 103.678 122.2C103.678 128.776 106.27 135.64 113.614 135.64Z" fill="white"/>
</g>
<defs>
<linearGradient id="paint0_linear_67_3437" x1="312.5" y1="-99.5" x2="458.5" y2="213" gradientUnits="userSpaceOnUse">
<stop stop-color="#02102B"/>
<stop offset="1" stop-color="#003D8F"/>
</linearGradient>
<clipPath id="clip0_67_3437">
<rect width="750" height="190" fill="white"/>
</clipPath>
</defs>
</svg>
